<svg width="100" height="100" viewBox="0 0 102 116" fill="none" xmlns="http://www.w3.org/2000/svg"><path d="M92.83 84.802l-40.145 22.711V89.828l25.013-13.763 15.132 8.737zm2.75-2.487V34.828l-14.685 8.487v30.526l14.684 8.474zM9.013 84.802l40.144 22.711V89.828L24.132 76.065 9.014 84.802zm-2.75-2.487V34.828l14.684 8.487v30.526L6.264 82.316zM7.987 31.75L49.158 8.46v17.092L22.777 40.065l-.21.119-14.58-8.435zm85.869 0L52.685 8.46v17.092l26.381 14.5.21.118 14.58-8.42zM49.157 85.802l-24.684-13.58v-26.88l24.684 14.25v26.21zm3.527 0l24.684-13.566V45.341l-24.684 14.25v26.21zm-26.54-43.566L50.92 28.618l24.777 13.618L50.92 56.54 26.144 42.236z" fill="#D1D2D6"/></svg>